<svg xmlns="http://www.w3.org/2000/svg" viewBox="0 0 397.102 397.102"><path d="M134.27 99.266c-19.621.002-35.525 15.91-35.523 35.53.002 19.621 15.91 35.525 35.53 35.523 19.621-.002 35.525-15.91 35.523-35.53 0-.173-.001-.346-.004-.519.002-19.332-15.668-35.006-35-35.008-.175 0-.351.001-.526.004zM54.858 54.857a20.374 20.374 0 0114.629-5.747l130.612-3.657a32.396 32.396 0 0122.988 9.404l164.571 164.571c12.263 11.808 12.632 31.322.824 43.585-.269.28-.544.554-.824.824l-123.82 123.82c-11.808 12.263-31.322 12.632-43.585.824-.28-.269-.554-.544-.824-.824L54.858 223.086a32.392 32.392 0 01-9.404-22.988l3.657-130.612a20.375 20.375 0 015.747-14.629z" fill="#00efd1"/><path d="M109.192 119.641a10.446 10.446 0 01-7.314-3.135L2.09 16.719A10.45 10.45 0 0116.719 2.09l99.788 99.788c4.04 3.706 4.31 9.986.603 14.025a9.8 9.8 0 01-.603.603 10.447 10.447 0 01-7.315 3.135z" fill="#00acea"/><path fill="#00ceb4" d="M338.025 235.625l-102.4 102.4-88.294-88.817 101.878-101.877z"/></svg>