<svg xmlns="http://www.w3.org/2000/svg" width="512" height="512" viewBox="0 0 24 24"><defs/><path d="M9.5 14.5l-.037-.001a.75.75 0 01-.691-.567L7.356 8.269l-.654 1.745A.75.75 0 016 10.5H1A.75.75 0 011 9h4.48l1.317-3.513a.765.765 0 01.745-.486.752.752 0 01.686.567l1.399 5.597 1.667-4.667c.107-.301.375-.521.714-.498a.75.75 0 01.704.513L13.541 9H18a.75.75 0 010 1.5h-5a.75.75 0 01-.711-.513l-.313-.939-1.769 4.954a.751.751 0 01-.707.498z"/><path d="M9.5 19C4.262 19 0 14.738 0 9.5S4.262 0 9.5 0 19 4.262 19 9.5 14.738 19 9.5 19zm0-17.5c-4.411 0-8 3.589-8 8s3.589 8 8 8 8-3.589 8-8-3.589-8-8-8z"/><path d="M23.25 24a.744.744 0 01-.53-.22l-7.31-7.31a.75.75 0 111.061-1.061l7.31 7.31A.75.75 0 0123.25 24z"/></svg>